# xmcd
#
# Track frame offsets: 
#        182
#        17750
#        33350
#        53597
#
# Disc length: 926 seconds
#
# Revision: 0
# Processed by: cddbd v1.4PL0 Copyright (c) Steve Scherf et al.
# Submitted via: ExactAudioCopy v0.90b4
#
DISCID=25039c04
DTITLE=Outline - Outline
DYEAR=1900
DGENRE=Country
TTITLE0=Someone Of My Own
TTITLE1=The Right Place
TTITLE2=Tears Are Only Rain
TTITLE3=So Long
EXTD=
EXTT0=
EXTT1=
EXTT2=
EXTT3=
PLAYORDER=
